<?xml version="1.0" encoding="utf-8"?>
<!-- Generator: Adobe Illustrator 26.0.0, SVG Export Plug-In . SVG Version: 6.00 Build 0)  -->
<svg version="1.1" id="Capa_1" xmlns="http://www.w3.org/2000/svg" xmlns:xlink="http://www.w3.org/1999/xlink" x="0px" y="0px"
	 viewBox="0 0 1483.11 483.21" style="enable-background:new 0 0 1483.11 483.21;" xml:space="preserve">
<style type="text/css">
	.st0{fill:#F48635;}
	.st1{fill:#030303;}
</style>
<g>
	<path class="st0" d="M171,272.85c25.72-4.79,50.1-11.85,73.42-22.24c15.62-6.96,30.58-15.17,43.97-25.95
		c12.04-9.7,23.06-20.42,30.23-34.3c9.94-19.23,10.74-38.85,1.36-58.7c-10.39-21.97-28.22-36.65-48.16-49.15
		c-18.37-11.51-38.41-19.41-59-25.95c-18.02-5.72-36.42-9.59-55.11-12.49c-10.18-1.58-20.52-2.01-32.14-4.41
		c10.67-3.93,19.92-7.43,29.25-10.75c29.79-10.59,59.9-20.12,90.41-28.42c4.15-1.13,7.75-0.11,11.56,0.85
		c39,9.78,76.14,23.94,109.61,46.67c15.52,10.54,29.57,22.73,41.04,37.7c30.64,39.97,28.97,84.7-4.54,122.39
		c-21.7,24.39-48.83,40.98-78.26,54.16c-40.25,18.02-82.61,28.44-126.21,34.15c-0.33,0.04-0.66,0.07-0.99,0.12
		c-12.54,1.78-12.56,1.8-18.68-9.2C176.2,282.74,173.78,278.06,171,272.85z"/>
	<path class="st1" d="M1377.87,227.35c0-8.02,0.12-14.46-0.05-20.9c-0.08-2.89,0.57-4.15,3.82-4.1c3.73,0.06,8.85,1.86,10.87-0.87
		c1.86-2.5,0.6-7.34,0.65-11.15c0.05-3.5,0.15-7-0.04-10.49c-0.14-2.55,0.6-3.49,3.32-3.46c11.83,0.14,23.66,0.16,35.48-0.01
		c3-0.04,3.6,1.05,3.52,3.74c-0.17,6.16,0.12,12.33-0.13,18.48c-0.12,3.11,0.82,3.96,3.91,3.92c13.16-0.16,26.32,0.05,39.48-0.15
		c3.51-0.06,4.5,0.95,4.38,4.42c-0.26,7.65-0.33,15.33,0.02,22.98c0.18,3.99-1.29,4.62-4.83,4.56c-12.66-0.2-25.32,0.07-37.98-0.17
		c-3.78-0.07-4.79,1.01-4.72,4.76c0.23,13.15,0.05,26.32,0.11,39.47c0.03,7.55,2.77,10.46,10.3,11.08
		c10.97,0.91,21.92,0.81,32.82-0.88c2.89-0.45,3.81,0.37,3.74,3.33c-0.18,7.32-0.28,14.67,0.04,21.98c0.15,3.4-1.46,4.18-4.18,4.87
		c-8.82,2.23-17.88,2.33-26.84,3.08c-11.75,0.99-23.39-0.1-34.7-3.62c-13.14-4.09-23.43-15.4-23.49-30.54
		c-0.06-16.16-0.24-32.31-0.09-48.47c0.03-3.76-0.66-5.22-4.82-5.08c-8.73,0.3-8.51,0.05-8.49,8.62
		c0.03,14.15,0.63,28.31-0.39,42.45c-1.2,16.66-10.86,26.31-25.86,31.97c-7.12,2.69-14.55,2.92-21.85,3.81
		c-8.49,1.03-17.14,1.28-25.7,1.15c-10.78-0.17-21.61-1.49-31.74-5.17c-13.43-4.88-22.29-14.03-23.55-29.2
		c-1.37-16.47-0.93-32.95-0.39-49.41c0.56-17.21,9.71-28.22,26.17-32.45c25.39-6.54,50.96-6.83,76.36,0.15
		C1363.9,209.05,1372.35,215.54,1377.87,227.35z M1337.36,261.6c0.05,0,0.11,0,0.16,0c0-5.15,0-10.31,0-15.46
		c0-0.66-0.06-1.33-0.1-1.99c-0.43-6.96-3.2-10.29-10.03-11.57c-8.25-1.54-16.56-1.51-24.8,0.02c-6.16,1.14-9.4,3.99-9.82,9.59
		c-0.98,12.93-0.9,25.89-0.03,38.83c0.3,4.5,3,7.4,7.23,8.52c9.82,2.59,19.73,2.62,29.58,0.15c5.16-1.29,7.79-4.79,7.81-10.14
		C1337.38,273.56,1337.36,267.58,1337.36,261.6z"/>
	<path class="st0" d="M434.24,435.7c-18.07,10.39-35.64,20.49-54.15,31.14c0-6.17,0-11.55,0-16.92c0-1.84,0.26-3.53-2.5-3.92
		c-14.14-1.98-27.85-5.92-41.64-9.49c-19.68-5.09-38.96-11.48-57.86-18.91c-33.35-13.11-65.51-28.53-95.88-47.78
		c-16.9-10.72-33.25-22.11-48.54-34.87c-28.55-23.83-53.35-50.91-69.34-85.09c-2.83-6.05-2.7-6.88,3.33-10.49
		c11.82-7.07,24.93-9.98,38.31-12.01c12.19-1.85,24.45-1.89,36.73-1.05c1,0.07,2.01,0.05,2.99,0.21c4.22,0.69,9.84,0.05,12.27,2.53
		c2.51,2.55-0.51,7.94-0.67,12.14c-0.79,21.83,7.11,40.84,18.9,58.56c17.44,26.22,40.49,46.76,66.16,64.5
		c40.79,28.21,85.55,47.83,133.29,60.93c4.17,1.14,4.73-0.12,4.51-3.77c-0.26-4.32,0.04-8.66-0.1-12.99
		c-0.1-3.12,0.62-3.93,3.59-2.19c10.04,5.92,20.18,11.66,30.26,17.5C420.47,427.56,426.99,431.44,434.24,435.7z"/>
	<path class="st1" d="M549.21,240.6c0-24.98,0.07-49.96-0.08-74.94c-0.02-3.48,0.82-4.42,4.36-4.4c30.64,0.16,61.29-0.1,91.94,0.21
		c12.32,0.12,24.29,2.24,34.2,10.74c5.21,4.47,8.92,9.96,10.41,16.44c3.39,14.73,3.4,29.68,1.11,44.58
		c-1.16,7.53-5.04,13.57-11.29,17.99c-1.86,1.31-2.54,1.99-0.1,3.81c8.94,6.65,12.67,15.93,12.65,26.91
		c-0.02,11.32-0.12,22.65,0.07,33.97c0.06,3.35-0.69,4.65-4.35,4.58c-11.82-0.23-23.65-0.2-35.47-0.01
		c-3.39,0.05-4.19-1.07-4.13-4.3c0.2-10.49-0.06-20.98,0.11-31.47c0.19-11.6-4.24-12.92-12.47-13.56
		c-13.41-1.04-26.96-0.4-40.44-0.6c-3.16-0.05-2.86,1.89-2.86,3.94c0.02,13.82-0.09,27.65,0.09,41.47c0.04,3.4-0.79,4.6-4.39,4.53
		c-11.65-0.22-23.32-0.21-34.97,0c-3.5,0.06-4.47-0.92-4.45-4.44C549.28,290.89,549.21,265.75,549.21,240.6z M615.81,195.22
		c0-0.1,0-0.19,0-0.29c-6.33,0-12.66,0.12-18.99-0.05c-2.89-0.08-4.09,0.53-4.03,3.8c0.21,11.16,0.19,22.32,0.01,33.48
		c-0.05,3.1,0.89,4,3.95,3.93c9.83-0.2,19.66-0.04,29.48-0.18c4.66-0.06,9.34-0.47,13.84-1.79c5.67-1.66,8.01-4.49,8.28-10.4
		c0.23-5.15,0.27-10.33,0.06-15.48c-0.35-8.53-4.02-12.45-12.61-12.95C629.16,194.92,622.48,195.22,615.81,195.22z"/>
	<path class="st1" d="M1154.11,313.47c0.75,7.8-4.4,7.1-9.52,6.98c-8.66-0.19-17.33-0.17-25.99,0.01c-2.95,0.06-4.05-0.57-4.04-3.8
		c0.1-50.65,0.1-101.29,0-151.94c-0.01-3.03,1.11-3.47,3.73-3.44c11.49,0.12,22.99,0.17,34.49-0.03c3.23-0.06,4.26,0.73,4.21,4.09
		c-0.2,12.66,0.07,25.32-0.17,37.98c-0.08,4.32,1.19,4.45,4.77,3.15c20.4-7.41,40.89-7.59,61.17,0.35
		c14.05,5.51,20.41,17.01,21.14,31.23c0.8,15.62,0.66,31.32,0.03,46.96c-0.56,13.86-7.39,24.75-19.83,31.04
		c-6.7,3.39-14.31,4.91-22.01,5.18c-5.58,0.19-11.19,1.18-16.73,0.86C1174.61,321.47,1163.96,319.96,1154.11,313.47z M1201.98,261.8
		c0.02,0,0.04,0,0.07,0c0-5.15,0-10.31,0-15.46c0-0.5-0.02-1-0.06-1.5c-0.57-7.46-3.06-10.49-10.41-11.76
		c-7.61-1.32-15.25-0.99-22.76,0.89c-5.82,1.45-9.85,5.05-10.84,11.07c-1.79,10.89-1.79,21.86,0,32.75
		c0.91,5.51,4.3,9.21,9.78,10.84c7.8,2.32,15.75,2.49,23.7,1.29c7.23-1.09,10.08-4.27,10.46-11.65
		C1202.2,272.79,1201.98,267.29,1201.98,261.8z"/>
	<path class="st1" d="M839.98,240.46c0-24.65,0.09-49.29-0.09-73.93c-0.03-3.96,0.63-5.45,5.03-5.3
		c11.15,0.36,22.31,0.26,33.47,0.04c3.38-0.07,4.1,1.03,4.06,4.21c-0.17,12.82,0,25.64-0.12,38.46c-0.03,3.11,0.14,3.69,3.64,2.54
		c22.23-7.34,44.5-8.35,66.15,2c11.19,5.35,15.33,15.74,17.03,27.28c1.46,9.93,0.68,19.95,0.75,29.93
		c0.11,16.65-0.07,33.31,0.11,49.96c0.04,3.59-0.69,4.96-4.61,4.86c-11.15-0.27-22.32-0.27-33.47,0c-3.92,0.09-4.64-1.27-4.62-4.86
		c0.16-22.31-0.11-44.63,0.15-66.94c0.13-11.89-5.31-15.65-15.47-16.04c-5.69-0.22-11.32,0.14-16.89,1.26
		c-7.42,1.48-11.51,5.85-12.2,13.46c-1.16,12.79-0.35,25.63-0.5,38.44c-0.12,10.16-0.17,20.32,0.06,30.47
		c0.07,3.37-1.01,4.24-4.23,4.19c-11.32-0.17-22.65-0.21-33.97,0.02c-3.66,0.07-4.36-1.25-4.34-4.59
		C840.04,290.75,839.98,265.6,839.98,240.46z"/>
	<path class="st1" d="M787.18,275.27c-13.16,0-26.32,0.19-39.47-0.1c-4.43-0.1-5.02,1.54-4.27,5.25c1.14,5.62,4.39,8.91,10.66,10.03
		c8.43,1.5,16.88,1.53,25.37,0.37c3.83-0.53,7.38-2.07,9.04-5.3c1.65-3.2,3.86-2.93,6.45-2.93c10.83,0.01,21.65,0.15,32.47-0.08
		c3.46-0.08,4.15,1.1,3.95,4.24c-0.91,14.22-8.32,24.04-21.08,29.28c-8.66,3.56-18.08,4.91-27.55,5.21
		c-7.25,0.23-14.51,1.22-21.73,0.9c-15.18-0.68-30.44-1.6-43.89-9.96c-9.31-5.78-14.54-14.33-14.84-25.25
		c-0.5-18.61-1.83-37.28,0.92-55.82c1.65-11.16,8.2-18.53,18.59-22.75c19.01-7.73,38.87-7.72,58.84-6.62
		c9.46,0.52,18.69,2.17,27.63,5.59c14.64,5.59,22.13,16.36,22.93,31.63c0.58,10.96,0.1,21.98,0.31,32.96
		c0.06,3.12-1.31,3.43-3.88,3.41C814.17,275.22,800.68,275.27,787.18,275.27z M766.17,246.81c5.64,0,11.29,0.13,16.93-0.07
		c2.17-0.08,5.33,1.44,6.34-1.03c1.09-2.69,0.19-5.95-1.48-8.54c-1.69-2.62-4.31-4.11-7.33-4.76c-9.37-2.01-18.78-2.08-28.12,0.03
		c-5.87,1.33-8.35,4.49-9.22,10.29c-0.43,2.88,0.1,4.26,3.46,4.14C753.22,246.65,759.7,246.81,766.17,246.81z"/>
	<path class="st1" d="M977.17,261.36c0.31-9.79-0.67-19.59,0.94-29.4c1.72-10.47,7.24-17.64,16.44-22.44
		c10.31-5.38,21.52-6.97,32.86-7.72c18.14-1.21,36.23-1.24,53.78,4.66c13.84,4.65,24.26,14.17,25.03,32.87
		c0.65,15.79,0.74,31.54-0.11,47.31c-0.8,14.79-12.14,25.78-24.72,29.93c-17.05,5.62-34.68,5.86-52.11,5.29
		c-11.27-0.37-22.79-1.91-33.51-7.4c-12.9-6.61-17.91-17.15-18.52-30.62C976.9,276.35,977.17,268.85,977.17,261.36z M1019.16,261.26
		c0,5.65-0.11,11.31,0.03,16.96c0.17,7.03,2.46,10.23,9.13,11.77c9.02,2.09,18.18,2.09,27.19-0.05c6.03-1.43,8.55-4.39,8.69-10.55
		c0.27-11.8,0.29-23.61,0.03-35.41c-0.15-6.91-3.34-10.19-10.23-11.44c-8.09-1.46-16.23-1.46-24.32-0.01
		c-7.29,1.31-10.32,4.85-10.51,12.26C1019.05,250.28,1019.16,255.77,1019.16,261.26z"/>
	<path class="st0" d="M306.22,9.63c6.8-0.06,13.19,2.31,19.57,4.31c33.97,10.63,64.11,27.88,90.5,51.91
		c32.49,29.58,55.05,65.35,68.03,107.2c6,19.34,9.08,39.15,10,59.46c1.95,43-7.35,83.33-27.15,121.35
		c-11.74,22.53-26.86,42.61-45.24,60.19c-2.45,2.34-11.36,0.29-12.49-3c-0.61-1.78,1.29-2.46,2.27-3.4
		c15.53-14.8,28.72-31.43,39.71-49.85c50.32-84.33,39.39-194.27-26.86-266.76C390.23,53.47,371.39,35.43,306.22,9.63z"/>
	<path class="st0" d="M26.26,313.45c4.83,2.74,9.66,5.46,14.48,8.21c1.45,0.82,1.74,2.42,2.25,3.77
		c12.64,33.1,32.34,61.51,58.37,85.32c31.45,28.77,68.25,47.31,110.2,55.7c19.71,3.94,39.59,4.98,59.44,3.61
		c26.18-1.81,51.51-8,75.31-19.44c6.5-3.12,12.22,0.45,18.27,1.14c1.13,0.13,2.23,0.6,4.75,1.3
		c-43.15,24.16-88.93,34.18-136.21,28.65C129.58,469.63,61.2,411.75,25.33,314.79C25.64,314.34,25.95,313.89,26.26,313.45z"/>
	<path class="st0" d="M133.76,49.74c-9.74,6.93-19.35,13.6-28.18,21.34C87.1,87.3,71.46,105.8,58.87,126.92
		c-15.15,25.42-24.95,52.8-29.38,81.99c-2.49,16.41-3.41,33-1.53,49.61c0.19,1.66-0.02,2.93-1.71,3.68
		c-1.05,0.47-2.05,1.07-3.06,1.64c-2.09,1.17-4.61,4.04-6.3,2.64c-1.49-1.25-1.72-4.67-1.68-7.42c0.16-11.31-0.51-22.65,0.21-33.91
		c0.66-10.37,2.29-20.71,4.42-30.93c4.88-23.36,12.99-45.6,24.48-66.46c7.34-13.32,15.73-26.03,25.72-37.63
		c5.27-6.12,10.22-12.56,16.15-18.05c8.54-7.91,17.1-15.83,26.57-22.64c5.18-3.72,10.91-0.23,16.38-0.67
		C130.52,48.64,131.96,49.33,133.76,49.74z"/>
	<path class="st0" d="M53.41,268.24c0,10.95,0.01,11.31,10.86,11.04c5.66-0.14,9.16,1.64,12.02,6.48c2.67,4.52,6.28,8.48,9.48,12.69
		c0.48,0.64,1.41,1.19,1,2.1c-0.52,1.15-1.72,0.83-2.61,0.65c-7.58-1.59-15.3-1.54-22.98-1.81c-2.46-0.09-5.27-2.78-7.03-0.73
		c-1.91,2.23-0.56,5.76-0.72,8.71c-0.12,2.16-0.01,4.33-0.03,6.49c-0.04,5.4-0.27,5.57-5.17,2.83c-6.77-3.78-13.49-7.66-20.19-11.55
		c-8.54-4.96-16.98-10.07-25.58-14.91c-3.35-1.88-3.21-3.04-0.02-4.88c14.87-8.55,29.66-17.23,44.5-25.83
		c6.05-3.51,6.47-3.26,6.47,3.74C53.41,264.91,53.41,266.57,53.41,268.24z"/>
</g>
</svg>
